<?xml version="1.0" encoding="UTF-8"?>
<svg width="36px" height="36px" viewBox="0 0 36 36" version="1.1" xmlns="http://www.w3.org/2000/svg" xmlns:xlink="http://www.w3.org/1999/xlink">
    <title>people / alert / at deadline</title>
    <g id="people-/-alert-/-at-deadline" stroke="none" stroke-width="1" fill="none" fill-rule="evenodd">
        <path d="M18.6648488,8.32979504 C18.8374403,8.43526763 18.9824617,8.5802891 19.0879343,8.75288061 L28.3048775,23.8351512 C28.6720633,24.4360008 28.4826415,25.2207485 27.8817919,25.5879343 C27.6816068,25.7102697 27.4515492,25.775 27.2169432,25.775 L8.78305684,25.775 C8.07889378,25.775 7.50805684,25.2041631 7.50805684,24.5 C7.50805684,24.2653939 7.57278717,24.0353363 7.6951225,23.8351512 L16.9120657,8.75288061 C17.2792515,8.15203107 18.0639992,7.9626092 18.6648488,8.32979504 Z M17.3813707,9.03967812 L8.16442751,24.1219487 C8.09486428,24.2357795 8.05805684,24.3665966 8.05805684,24.5 C8.05805684,24.9004064 8.3826504,25.225 8.78305684,25.225 L27.2169432,25.225 C27.3503466,25.225 27.4811637,25.1881926 27.5949944,25.1186293 C27.936654,24.9098374 28.0443644,24.4636083 27.8355725,24.1219487 L18.6186293,9.03967812 C18.5586547,8.94153784 18.4761915,8.85907466 18.3780513,8.79910004 C18.0363917,8.5903081 17.5901626,8.69801857 17.3813707,9.03967812 Z M20.2930391,15 C20.3156038,15 20.3375053,15.0076316 20.3551838,15.0216544 C20.3984529,15.055976 20.4057063,15.1188757 20.3713847,15.1621447 L19.3594745,16.4378553 C19.3306019,16.4742547 19.3306019,16.5257453 19.3594745,16.5621447 L20.3713847,17.8378553 C20.3854075,17.8555337 20.393043,17.8774352 20.393043,17.9 C20.393043,17.9552285 20.3482676,18 20.2930391,18 L17.2851507,18 L17.2851507,22 L16.7091507,22 L16.7091507,15 L20.2930391,15 Z" id="Shape" fill="#142846" fill-rule="nonzero"></path>
    </g>
</svg>