<?xml version="1.0" encoding="UTF-8"?>
<svg width="36px" height="36px" viewBox="0 0 36 36" version="1.1" xmlns="http://www.w3.org/2000/svg" xmlns:xlink="http://www.w3.org/1999/xlink">
    <title>system / class / source 2</title>
    <g id="system-/-class-/-source-2" stroke="none" stroke-width="1" fill="none" fill-rule="evenodd">
        <path d="M23.9955601,7.9 C24.6030733,7.9 25.0955601,8.39248678 25.0955601,9 L25.0955601,23.4974331 C25.0955601,23.6953039 24.9980033,23.8804522 24.834795,23.9923267 C24.2858281,24.3686272 24.0285657,24.851465 24.0285657,25.5 C24.0285657,26.1737379 24.246991,26.669363 24.692327,27.0376038 C25.1256835,27.395939 24.8722977,28.1 24.3099793,28.1 L13.5,28.1 C12.0640597,28.1 10.9,26.9359403 10.9,25.5 L10.9,10.5 C10.9,9.06405965 12.0640597,7.9 13.5,7.9 L23.9955601,7.9 Z M23.1565921,24.0990378 L13.5,24.1 C12.7722836,24.1 12.1742479,24.6552289 12.1064088,25.3651707 L12.1,25.5 C12.1,26.2731986 12.7268014,26.9 13.5,26.9 L23.111,26.8990625 L23.0636595,26.7916914 C22.9332836,26.4682245 22.8569413,26.1141563 22.8351154,25.7323728 L22.8285657,25.5 C22.8285657,24.9832927 22.9392903,24.5139307 23.1565921,24.0990378 Z M23.895,9.1 L13.5,9.1 C12.7268014,9.1 12.1,9.72680135 12.1,10.5 L12.1,23.309 L12.1435684,23.2814366 C12.4945875,23.0663645 12.9005852,22.9322608 13.3355719,22.9051152 L13.5,22.9 L23.895,22.9 L23.895,9.1 Z M18.366,12.95 C19.409,12.95 20.13,13.531 20.13,14.392 C20.13,15.155 19.528,15.715 18.947,16.331 L18.03,17.29 L20.172,17.29 L20.172,18.2 L16.525,18.2 L16.525,17.388 L18.394,15.421 L18.6044225,15.1948875 C18.8363827,14.9382593 19.01,14.7023333 19.01,14.441 C19.01,14.056 18.73,13.867 18.366,13.867 C17.981,13.867 17.743,14.105 17.694,14.378 L16.525,14.378 C16.644,13.587 17.281,12.95 18.366,12.95 Z" id="Shape" fill="#142846" fill-rule="nonzero"></path>
    </g>
</svg>