<?xml version="1.0" encoding="UTF-8"?>
<svg width="36px" height="36px" viewBox="0 0 36 36" version="1.1" xmlns="http://www.w3.org/2000/svg" xmlns:xlink="http://www.w3.org/1999/xlink">
    <title> system / file / landscape image</title>
    <g id="-system-/-file-/-landscape-image" stroke="none" stroke-width="1" fill="none" fill-rule="evenodd">
        <path d="M25.648,23.88 C26.256,23.88 26.768,23.4 26.768,22.792 L26.768,12.808 C26.768,12.2 26.256,11.688 25.648,11.688 L10.352,11.688 C9.744,11.688 9.264,12.2 9.264,12.808 L9.264,22.792 C9.264,23.4 9.744,23.88 10.352,23.88 L25.648,23.88 Z M12.016,23.016 L10.352,23.016 C10.224,23.016 10.128,22.92 10.128,22.792 L10.128,12.808 C10.128,12.68 10.224,12.552 10.352,12.552 L25.648,12.552 C25.776,12.552 25.904,12.68 25.904,12.808 L25.904,22.792 C25.904,22.92 25.776,23.016 25.648,23.016 L17.968,23.016 L15.12,19.08 C15.056,19.016 14.96,19.016 14.896,19.08 L12.016,23.016 Z M21.456,18.28 C22.32,18.28 22.992,17.576 22.992,16.744 C22.992,15.88 22.32,15.208 21.456,15.208 C20.624,15.208 19.92,15.88 19.92,16.744 C19.92,17.576 20.624,18.28 21.456,18.28 Z" id="Shape" fill="#142846" fill-rule="nonzero"></path>
    </g>
</svg>